/* XPM */
static char *f207447b69fd434ab95e77dcbac9b65ez0tMavLgjEpEPo2b[] = {
/* columns rows colors chars-per-pixel */
"32 32 23 1 ",
"  c #2C2115",
". c #302417",
"X c #3F3F3F",
"o c #443321",
"O c #493824",
"+ c #483C2F",
"@ c #534028",
"# c #534332",
"$ c #574835",
"% c #664F2F",
"& c #785836",
"* c #725D3F",
"= c #414141",
"- c #464646",
"; c #494949",
": c gray29",
"> c #4E4E4E",
", c gray32",
"< c #555555",
"1 c #5D5D5D",
"2 c #805E36",
"3 c #836546",
"4 c #8A6B46",
/* pixels */
"$3344*$44*4*#34434$4*4*4#4*443*$",
"$&222%O22%2%o&22&2O2%2%2o2%222%.",
"$%22&%o22&%&o22%%2O22&%2o2%%22% ",
"$%2%&%o22&%&o2@%%2o22&%2o2&%222 ",
"$2@%&%o22&%&o%&%%%o22&%2o2&%2%& ",
"$22%&%O22&%2o%&%@%o2%&%2o2@%2%&.",
"$&2%&%O2&&%2O%&%2%o2%&%2O&&%2%&.",
":<2%&%O2&&@2o%&%2%o2%&%2o&&%2%@.",
"11<:<<=<<:<<=<<:<<=<<:<<=<<:<<& ",
"<1>X-1=1>X-1=1>X-1=1>X-1=1>X-1, ",
"<<:=::=::=::=::=::=::=::=::=::& ",
"::%2&2o%2&%2O%&22&o%222@O2%&2%& ",
"$%&2%&o%2%&2O&%22&o%2%&%O2%&2&% ",
"$2&2%&o%2%&2O@%22%o&2%&%O%2%2&% ",
"$2&2%&O%2%&2O&%&%2O&2%&2O%2%2&%.",
"#%%%%%o%2%&2O&%2%2O%%%%%O&2%2&% ",
"$2%2%&o2%&22O&&%22O%2%&2O%&22&% ",
"#2%2%%O2%&2&O&&%22O%2%&2O%&22@%.",
"#@%2&%o&%&%&O2&%&2O%2%%&O%&%22% ",
"$&%2&%O&%&%&O2%2&%O@2&%&O%&%22%.",
"$&%2@%O&%&%&o2%2&%o%2&%&o%&%2&%.",
"$&%2&%O&&&%2o2%2&%o%2&%&o@&%2&%.",
"#%%2&%O&2&%2o&%2%&o%2&%&o2&%2&&.",
"#%&2&&O22&%2o&@2%&o&2&@&o2&@2&%.",
"#%&2&2o22%&2o2%2%2o&2&22o2%&22% ",
"+%&%&2o22@&2o2%2%2o&2&22o2%&22% ",
"#%2%&%o22%&2o%&2%2o22&%2o2%&2%& ",
"#%2%&%o22%&2o%&2%2o2%&%2o2%&2%& ",
"#%&%@%o22%&2o%&2%2O2%&%2o2%&2%& ",
":<%&&%o%2%2&O%&%&2O2%&%2O2%22%& ",
"11<:<<=<<:<<=<<:<<=<<:<<=<<:<<2.",
"<1>X-1=1>X-1=1>X-1=1>X-1=1>X-1,."
};
