/* XPM */
static char *e44cb5cf7e754cbcc9f68439e357b7cbEzQlXS2K57hZJcL2[] = {
/* columns rows colors chars-per-M_PIxel */
"50 63 155 2 ",
"   c None",
".  c #46494C",
"X  c #4A4B4A",
"o  c #504F4B",
"O  c #54514F",
"+  c #4E4F51",
"@  c #4D5152",
"#  c #535352",
"$  c #5C5752",
"%  c #575857",
"&  c #5B5955",
"*  c #575858",
"=  c #5D5C5A",
"-  c #6A554B",
";  c #725D4C",
":  c #645D55",
">  c #6A5C54",
",  c #625E5A",
"<  c #695F59",
"1  c #5F615F",
"2  c #64625D",
"3  c #6B645D",
"4  c #786957",
"5  c #71665B",
"6  c #73685C",
"7  c #7A6C5C",
"8  c #5D6062",
"9  c #656462",
"0  c #6A6662",
"q  c #6D6A65",
"w  c #6E6C69",
"e  c #736C65",
"r  c #786E63",
"t  c #736E69",
"y  c #786E69",
"u  c #6F706C",
"i  c #767166",
"p  c #7B7265",
"a  c #75716C",
"s  c #7B746C",
"d  c #7E786E",
"f  c #767471",
"g  c #7A7671",
"h  c #7D7974",
"j  c #7E7D79",
"k  c #81715E",
"l  c #89735C",
"z  c #837463",
"x  c #837867",
"c  c #827569",
"v  c #837A6D",
"b  c #8B7D6D",
"n  c #837C74",
"m  c #897F73",
"M  c #827F79",
"N  c #897F78",
"B  c #9D8C6E",
"V  c #868177",
"C  c #8A8275",
"Z  c #85817B",
"A  c #8B857C",
"S  c #8E897E",
"D  c #938574",
"F  c #908877",
"G  c #91877B",
"H  c #91887E",
"J  c #968C7C",
"K  c #938A7D",
"L  c #988C7C",
"P  c #A18F73",
"I  c #A49071",
"U  c #A39379",
"Y  c #878480",
"T  c #888581",
"R  c #888683",
"E  c #8E8781",
"W  c #8C8782",
"Q  c #8A8681",
"!  c #8D8880",
"~  c #8D8882",
"^  c #8E8982",
"/  c #8B8A85",
"(  c #8D8A85",
")  c #8F8B84",
"_  c #8D8983",
"`  c #8E8D88",
"'  c #918A80",
"]  c #908B83",
"[  c #938C83",
"{  c #978E80",
"}  c #958E83",
"|  c #918B84",
" . c #908B86",
".. c #908C85",
"X. c #938D85",
"o. c #938E85",
"O. c #918D86",
"+. c #948D84",
"@. c #928C84",
"#. c #998E84",
"$. c #928F89",
"%. c #938F8B",
"&. c #938F89",
"*. c #969086",
"=. c #9B9080",
"-. c #9D9385",
";. c #9A9285",
":. c #959089",
">. c #979288",
",. c #94908A",
"<. c #97938A",
"1. c #95928E",
"2. c #96948F",
"3. c #96928B",
"4. c #98928B",
"5. c #9E9589",
"6. c #9E9788",
"7. c #99938D",
"8. c #99958E",
"9. c #9C958D",
"0. c #9A948C",
"q. c #9C988E",
"w. c #9A9690",
"e. c #9D9992",
"r. c #9E9992",
"t. c #9D9994",
"y. c #9D9992",
"u. c #A69789",
"i. c #A59F8E",
"p. c #A39A8D",
"a. c #A99E8E",
"s. c #A89D8F",
"d. c #A29B90",
"f. c #A09D96",
"g. c #A09D97",
"h. c #A29D95",
"j. c #AB9F93",
"k. c #A29E99",
"l. c #A7A194",
"z. c #A5A196",
"x. c #ABA294",
"c. c #A3A29E",
"v. c #A5A19A",
"b. c #A9A198",
"n. c #AAA69E",
"m. c #AEA899",
"M. c #B4AC9C",
"N. c #ABA7A0",
"B. c #ABA7A2",
"V. c #AFABA3",
"C. c #B3ABA1",
"Z. c #B9B2A6",
"A. c #BDB8AF",
"S. c #C2BBAA",
"D. c #C1BEB2",
/* M_PIxels */
"                                                                                                    ",
"                                                                                                    ",
"                                                                                                    ",
"                                                                                                    ",
"                                                                                                    ",
"                                                                                                    ",
"                                                                                                    ",
"                                                                                                    ",
"                                                                                                    ",
"                                                                                                    ",
"                                                                                                    ",
"g 2 A n e h j j g Z q M e : M 9 9 6.i.w a s h j c.a i h S V w p H Z m s v H -.6., , M a t h e i Z A ",
"w g.4.s A Z t V t f Z V s } d.g f N.= q E n Z p e t >.t M Z n Z a 2 = h h ^ g s p G 8.a # q = r g A ",
"i Z , g v r = a A ..n C A l.m.q 0 1.2 0 p s 9 e q 0 p 9 q Z d M i Z Z ) Z m 7 r 7.h A p e S.D.+.j Z ",
"| Z s f h ..2.j Z q q g , 0 Z ^ h } ] S ..S A V ^ S 9.e g r.n A ^ r.g Z T 0 u $.T M 8.t.r 2 $ a i n ",
"] t 0 s p 3 g.q 9 a 2 ,.9 0 2 p 8.e v d C C r n Z r e 0 q m J b 2 q a e M e a s s i s | : 9 $ e s n ",
"M Z $.) C A C z n s i Z h ^ V A s h ) T a g / h 0 M n ,.A A [ ..M Z g Z ,.n g E M r q Z ;.a.b.d i a ",
"0 t 0 9 e t j v m q q e t 0 J a.2 q 3 p 3 a v.Z g h D V 3 3 q ..h T j M h h c v M t h 9 >.K Z 3 s t ",
"h Z M ^ A ,.$.n h h A M h Z g w q t 2 j 2 g q m q s s h , , q = g t 9 M Z a 7 J s n t s 0 0 t a w g ",
"i.m = 2 3 3 V p n 6 Z 0 9 h 9 , q 9 3 q q | t a M 1.i ^ g h 1.M &.M q A w w d C ..a g t 9 r t 9 p F ",
"# 9 2 v.;.% e 2 D m s v H s 2 M Z g p n m +.= t D K g = S p q v g n t i V V i p = 9 a 9 Z r e = } = ",
"Z a a v v k.2.Z s Z s V Z ..m A <.$.m 4.^ 1.$.S A A ^ M ....s S s g C C Q Z ..t 8.Z ,.A m Z ^ & ;.Z ",
"A 0 q > ; n n n + . p p s ] t # t : : : 2 0 9 v p s 3 t m 0 q T 2 g p z 9 9 Y 9 t t , 0 e 3 q & G n ",
": q q q i = w.h i m 6.a 0 0 S q Z } A Z A Q 9 = ..r e S = 9 S s Z h f n [ 4.t t >.n A = e V i 9 p 6 ",
"g.) $.M 7.j $.n d s h M j M g M Z Z 8.A 8.r.^ S ..h ` p.6.$.Z Z g h h 8.r.M e 2.h.^ V V s ..H ] ` g.",
"g e ^ C e w w q q a e i m a 9 3 w t h i A q q M t e h C 2 i v q Z = 9 Z t M 9 Z q Z [ m 2 ,.U P f a ",
"g a Q [ p r.,.Z 1.,.t.8.$.v A g.g q g h s ....g ) 0 k.H N.1...Z V.Z w 8.k z M q V 0 = Z q ^ ;.C / g ",
"t t 2 p e h g a w.] e q q i g q = = q 1 s 1 g.q f w a n h e = & = = s w 2 V A ;.q 2 A v r +.Z Z h a ",
"0 q 0 p.V p C g & e ) 0 Z i m c n #.n b D q g S 4.M Q a i $.^ ] ] S Z Q n s d v t a ..a m Z 0 s i 0 ",
"p p Z t.C m K p 6 m } S >.s c A A m n v b % t g i s A p s s y d n p p 3 [ d h A 6.e 6 n n 9 & 2 2 0 ",
"p d 3 6 4.m h s 3 1.e i s a p A Z i q 9 a M f f Z T A n s i 2 q t 9 , @ s h $.s Z 2 = = M p v V p.A ",
"h t a = 9 2 & Z = i # e d h = = # & i n r = ,...^ g s g M S a r w H u.M 9 0 0 s r o & Z h T ,.4.A Z ",
"m s n Z t h V V ` V C = 9 M j e e y +.0 i g M n S q e e p A a -.;.p G j w j f T e x.M.M.= = Z e : 2 ",
"Z n m m i s s e ` m L ) w g g C H Z n q g d Z i h a Z p n s A p a = , p b b ^ +.v.0 3 , a n.&.g.M Z ",
"s 9 a q = t 3 V V n , : v A m Z ;.h 0 3 p p n 3 s s ;.g = 9 i 0 t 2 q C c v h e T s = & 3 6 3 t.t w ",
">.f T w.A.a Z n n M # e | ] T 5 > [ h Z Z ] r.v.] ^ Z Z 0 t ] ^ ^ E h a g.Z ] ..g.v ;.] ] Z w.h h s ",
"r , e 3 3 h 0 = 2 = s n Z 2 9 p e h a q a : e 2 # , 3 b } t h p D K 9 9 g t s t A A Z Z r e ) t q i ",
",.^ Q $.T ^ a h $.a T A 8.a T ^ Z t.i Q T g g A Q ) g Z ) g M g ..^ Z h 8.0 a M A Z t f 3 h Z Z w.8.",
"n a q Z q a h.;.n e e q v 2 0 d r , & 0 2 % x.j.u.l.A n h i A M # 2 = 0 a I P r 0 , 2 0 a a q s i w ",
"..,.h r.T 0 Z s ....Z r.n.^ r...Z t.1.j Z A Z Z A 4.: 6 p A A M = = X a p v D 3 r 2 0 9 q g 9 w a A ",
"t w w w Z i j Z 6.r p s v.t T n ..9 k.9 p c &.t a h h % j = 9 8 ` w q q M q M 0 g 9 h 2 q & q 9 q 9 ",
"g V ;.>.p b n 0 q h.w a q q p [ t q w 9 z z H e n 2 e d A i z ..M Z g.A Z w.s h q.t.^ ..r Z r ] 2 0 ",
"h 7 q i h 7 Z g g i 2 a , w , h = = , t l k t.a 1.w q v Z 7 l t 2 & Z & O a o = 2 , # A M r.,.g...h ",
"n M A s g v.a q Z s y M } S t s M a t M w 9 k.e r e ..M ` Z f M s h.h.8.^ S A ^ ^ 7.p.C.3 e M A A p ",
"V M t t e z.2 2 p s y Z J ;.0 p h l.v.A q w t.0 0 0 Z 2 q K } q # ;.[ A S H ] h Z C.s.Z.2 e h s 0 s ",
"Z 0 e Z q r.S ^ A [ g g s $.a w 4 p * & h t 9 B J ,.T q 0 +.n p 2 g e 3 o A m A 3 & g e r.v.q a Z n ",
"e 0 h 0 h i q A n n s t t h 0 9 4 l 0 M Z M w f v.N ,.1.w 2 S M V a x z 3 q a q S [ M g Z Z 2 3 q a ",
"= 9 0 , Q & w 0 0 Z h g n a a Z w n g q s q = = c > > S a = M i n A 8.v.8.v.v.h Z h g ` &.+.m p g Z ",
"S e t H +.A ^ 2 i g q Z , e t t g d h e h g.h A t p 5 h r Z 0 q t q M i i ,.# 2 A p : 2 V A A d 9.l.",
"H 2 q : : d A 0 &.g n n V V n s 6.v.>.H 4.A Z p q ..g.A V M i h 2 0 q 0 q v Z a h.| $.A M d v p 9.l.",
"2 V.#.g G C S - c g g n v M n s Z ) g g g ..1.z p | a w s a p a.a 2 Z & M d q M 9 2 s , 0 r.n < h & ",
"                                                                                                    ",
"                                                                                                    ",
"                                                                                                    ",
"                                                                                                    ",
"                                                                                                    ",
"                                                                                                    ",
"                                                                                                    ",
"                                                                                                    ",
"                                                                                                    ",
"                                                                                                    ",
"                                                                                                    ",
"                                                                                                    "
};
