/* XPM */
static char *d5122ef59b984585c7430b80184d8c7eMSqKaLRE0s1fyuf5[] = {
/* columns rows colors chars-per-M_PIxel */
"51 50 193 2 ",
"   c None",
".  c #4F392C",
"X  c #4D3F37",
"o  c #543F30",
"O  c #444526",
"+  c #484223",
"@  c #4B412E",
"#  c #554726",
"$  c #50492C",
"%  c #4D502F",
"&  c #5E512F",
"*  c #424630",
"=  c #4E4B34",
"-  c #534434",
";  c #554E34",
":  c #5D4937",
">  c #564A39",
",  c #5C4B3C",
"<  c #4D5239",
"1  c #555533",
"2  c #5B5434",
"3  c #54543A",
"4  c #5A573A",
"5  c #5C5B3D",
"6  c #6A4C37",
"7  c #614938",
"8  c #6B4E3E",
"9  c #615836",
"0  c #62573B",
"q  c #6B533C",
"w  c #635B3E",
"e  c #6F583E",
"r  c #5D603E",
"t  c #5B4B44",
"y  c #515640",
"u  c #5C5443",
"i  c #575B40",
"p  c #5C5C43",
"a  c #634D42",
"s  c #635243",
"d  c #6B5543",
"f  c #645D44",
"g  c #6C5C44",
"h  c #64544C",
"j  c #6C5649",
"k  c #645C4B",
"l  c #6B5C4C",
"z  c #735646",
"x  c #725B44",
"c  c #785C42",
"v  c #745C4C",
"b  c #675851",
"n  c #6D5D54",
"m  c #745E53",
"M  c #785E50",
"N  c #5C6245",
"B  c #5D614B",
"V  c #646344",
"C  c #6B6444",
"Z  c #636846",
"A  c #6D6B46",
"S  c #63634B",
"D  c #6B644B",
"F  c #656A4A",
"G  c #6C6B4C",
"H  c #716343",
"J  c #796147",
"K  c #746844",
"L  c #73634C",
"P  c #7A644A",
"I  c #726B4D",
"U  c #7A6A49",
"Y  c #6F704E",
"T  c #76734C",
"R  c #646452",
"E  c #6C6552",
"W  c #666A53",
"Q  c #6B6C52",
"!  c #6B6F58",
"~  c #756254",
"^  c #7B6354",
"/  c #736D53",
"(  c #7B6B55",
")  c #75635A",
"_  c #7C665B",
"`  c #756D5A",
"'  c #7D6B5C",
"]  c #6D7155",
"[  c #6E7159",
"{  c #727354",
"}  c #7B7355",
"|  c #777857",
" . c #7B7A56",
".. c #73735A",
"X. c #7C735B",
"o. c #737A5D",
"O. c #7B7A5A",
"+. c #786663",
"@. c #776864",
"#. c #7D6B62",
"$. c #7B6E68",
"%. c #767660",
"&. c #7A7B64",
"*. c #7E7D6E",
"=. c #80644E",
"-. c #846E4F",
";. c #896C4E",
":. c #81724D",
">. c #826655",
",. c #836B54",
"<. c #896C53",
"1. c #80665A",
"2. c #836B5D",
"3. c #8A6E5C",
"4. c #817355",
"5. c #8B7355",
"6. c #8D7956",
"7. c #83725C",
"8. c #8B725D",
"9. c #847B5D",
"0. c #8E7D5C",
"q. c #927657",
"w. c #937359",
"e. c #9D7E5F",
"r. c #846D62",
"t. c #8A6F63",
"y. c #826E6B",
"u. c #857264",
"i. c #8A7464",
"p. c #837C63",
"a. c #8D7A65",
"s. c #84736C",
"d. c #8B756B",
"f. c #8D7A6B",
"g. c #937664",
"h. c #937B64",
"j. c #9A7E66",
"k. c #93766A",
"l. c #937C6B",
"z. c #9A7E6B",
"x. c #857572",
"c. c #8A7571",
"v. c #8D7B72",
"b. c #937D72",
"n. c #9A7F71",
"m. c #937E78",
"M. c #98825F",
"N. c #838264",
"B. c #8B8562",
"V. c #888A63",
"C. c #87836C",
"Z. c #8E816B",
"A. c #938365",
"S. c #9B8165",
"D. c #9D8864",
"F. c #96826D",
"G. c #9B836C",
"H. c #91886B",
"J. c #9B896C",
"K. c #8F8470",
"L. c #958173",
"P. c #9B8473",
"I. c #938971",
"U. c #9D8B71",
"Y. c #93837B",
"T. c #94827E",
"R. c #9A867F",
"E. c #9B8578",
"W. c #9D8A7D",
"Q. c #A3856D",
"!. c #A3896C",
"~. c #AA8B6E",
"^. c #A28772",
"/. c #A38C74",
"(. c #A48B74",
"). c #AA8D73",
"_. c #A08779",
"`. c #A28E7C",
"'. c #A48C7A",
"]. c #A98E7B",
"[. c #AE9274",
"{. c #A5917B",
"}. c #AC927C",
"|. c #968782",
" X c #998682",
".X c #9D8A82",
"XX c #9D8A80",
"oX c #A08F87",
"OX c #A69182",
"+X c #AC9482",
"@X c #A4918A",
"#X c #A9958C",
"$X c #B2A19D",
/* M_PIxels */
"                                                                                                      ",
"                                                                                                      ",
"                                                                                                      ",
"                                                                                                      ",
"                                                                                                      ",
"              7 p V C k.g k.i.i.,.7.n.2.G.x a...g >.l.k.h 7.v ( - ` l.p.V K l.l.l.F.b.i.u.y.          ",
"              P k &.S l._ ~ r.j ^ v u.g.G.L . ..i.( _ F.l.u.u.> V f.c.h.U.l.}.3.Z.W S #.2.r.          ",
"              i.E < S s.r.r.r.d ,.P v G.<.6 ,.8 2.E..Xl.<.I V : ' s.b.`.C.u.l.p.N...C.2.h ^           ",
"              f.R ..E ..u.i.2.Q p f.2.v { f P.k.f.Y.T.R.v.} G L.$X].` L., P.l.~ m D u.a.h '.          ",
"              2.9.` n @ 2.h.X.[ { p Q S S D W.b.b.b.m.b.#...p  X.X' L..Xd.l._.@XoXi.L.m x.s.          ",
"              7.R ' s.B y F S S [ [ S ! [ B ..f.~ k.D l.&.u./.XXI.} &.v.R.L.R.OXs.#.E.G.i.'           ",
"              i p ) E W W ..I / Q [ [ [ [ W Q 7.z.i.&.' X.` `.L o./ X ..d.W.].K.z.x.c./ $.s.          ",
"              - W B %...s s L ~ S ..W Q Q [ Q ( i.2.' 1.h.a W.l.D ) b L.s.9.(.*.l.u.f.P.k 7.          ",
"              _ h t , _ y.r.m 2.r.j ..! ..f ^ l l.k.( L.'.i.h.v.#._ #.s.E.).l.n L.v.S.^.#.#.          ",
"              i.r.u._ d.i.r.d.i.i.u.p ] u.2.d s b.G.V S l.l L.P.c.s.d.s.u.i.v.d.}./.L.u.+.s.          ",
"              2.b.1._ 2.^ 2.r.r.r.2./ F r.s.D z.).j.5 = 4 * a.r.x.T.v.2.Z.d.v.v.].].E.y.F.y.          ",
"              /.h.h.2.t.t.b.' r.1.' d D s.O.E z.Q.(.d V p | 5 I..Xd.n d.~ u.E.L.P.b.P.f.g d.          ",
"              ).I 0.^ r.u.r.2.r.u.(.m / ` ..,.P.P...t.U.h.2.d F I f.a.k.r.u.G.d._.].P.u.n.b.          ",
"              i.J.X.' r.' r.i.p.F } _ n X.( } {.) s p.P.X.P.( < V s.t.a.7.L.L.L.s.b.l.' ].L.          ",
"              2.m d.2.3.l.~ S S { d ^ v a 2.!.} j X.U.h.,.H.) n { b.s.l k.L.W.`.f.|.l.P.'.h.          ",
"              r.u.u.p.v N.Q ..O.p X.7._ l i.3.(.k., f (.i.; d.~ ~ b.v.r.f.b.'.P.G.+Xv.'.C N           ",
"              u.o S : u k h a.d O.G f 3.3.8.~.<.i.L./ l.^ { ~.I G.}.d.l.L.s.l.d.L.L.s.d.t D           ",
"              ^ X.f s g.g._ ~ r.v V @ w.8 g ^ L ' r.} i.2.d h.A.i.'.y.v.~ d.d.'.l.'.P.O.) L           ",
"              G.` G a.,.P.r.r.r.7.7.2.^ z.z G.Q.r.d.} Q.i.u.g.v E.i.r.a.'.}.F.d.F._./.z.{ %           ",
"              ( 2.5 ..v 2.r.u.r.d I 2.u.1.j.(.2.g.k.l.).].j.j.!.OXL W.#.#.P.s.u.' k.F.h.l O.          ",
"              i.h.o.a.G.r.2.#.b.~ D P >.t.2.z.Q.0.S.Q.^.}.j.G.I l.5.L.b.}.].' k.' @Xv h.i.L           ",
"              G.X.5 t.m d.,.L.5.E ' H.<.^.l.t.g.j.2.b.Q.}.( M.0 P T s.F.g 8.V L v.l.<.G.k.z.          ",
"              ..w m ) r._ u v r.j v D 7.i.3.S.k.i.d.L.^.z.7.T X.].l I U F C A ' d.~ A.A.J.9.          ",
"              # L _ @.u._ E h.' r.2.a ^ j.d.z.G.L.v.h.d.L.r.7.L.+Xz./ { { r G I 9.7.[ V w 5           ",
"              ,.^ M ^ d.' m b.d.1.2.2.2.z ~.i.g.].P.G.d.b.d.^ b.b.( w ` D | A I f 5 G } N.G           ",
"              1.~ m 1.r.`.l.2.8.i.k.j.u.q g.].g.).[.h.8.u.k.z.f.O.V f s.g C a.D.Z 1 p Q.G.h.          ",
"              2.b.) r.l.s.g.z.u.2.2.r.^.1.^ 2.i.(.l.P.i.i.f.d.O.{ ..|.^.4.G F i.L 9.& a.r.e.          ",
"              ( h.#.s.n.b.^.a.G.P.}.a.Q.[.G.0.z.G.'.l.2.u.k.(.} N.u.d.l.( a.| l.D /.h.OXb._           ",
"              w ^ L.P.h.z._ j t.u.r.d.P.f._._ P !.l.h.}.(.l.L 4 f.W.z./ h.8.q u.<.2 !.].u.i.          ",
"              P.s.P.l.d.g.3.2.2.u.3.i.r.P.u.f.l.i.l.i.h.}.i.P.l.r.b.i.l.h.q.j a.).,.Q i.r.d.          ",
"              !.G.8.l.d.u.r.f.G.^ _ i.G.G.}.G.z.2.i.i.}.+Xf.(.P.=.#Xz.d.W.q x x } (.( P.^.4.          ",
"              h.4.b.r.i.U d.E./ G.L.].y.2.h.( +X'.d.b.z.].A.G.G.k.t.'.h.~ ~ L.(.9.4 '._.,.9.          ",
"              a.h.^ k.L ; ( D Q / 0.K 6.D.C ( '.}./.L.P.} { 0 /.G.>.x 5 /.k.i.]._  .u.OXl.x           ",
"              ( f.( h./ 5 w ( | { 9. .A x 9.V } 4.z.b.J.G G p 4 H 5.C 3 ).(.h.l.v S f } F.u.          ",
"              i.H ; p ` D V G $ f i g L '.x q F Q.[.}.I G { N. .G G / G.).!.G V u &./ p D -.          ",
"              ; d f [ L G V D C { L 2 j.).,.I / A.P.P.{ Q S e { F ] 3 V 9 + - O.[ Q [ , p D           ",
"              g h.v : i.S G v x 2.2.D } I C G G Q l.7.V 5 V ;.V { G { G ..L i.$ G &.I.) D F           ",
"              r.>.a.G 4 { x i.8.l.G.7.v 4.D G G G G.{ { V C G V } / F / V X.7.O.7.7.'.OXl.1           ",
"              ,.g  .V O 4 ,.u.G.f.h.A.j.F.L J e 9.!.9.V.} { G :.!.c B.G G u./ O.G.f.P.L.d.4           ",
"                                                                                                      ",
"                                                                                                      ",
"                                                                                                      ",
"                                                                                                      ",
"                                                                                                      ",
"                                                                                                      "
};
