/* XPM */
static char *_24a07d24ed046b7f9a71bdea47673e9LDya7hiM_PIo6tZZ3l[] = {
/* columns rows colors chars-per-M_PIxel */
"50 50 191 2 ",
"   c #524C3C",
".  c #584F3F",
"X  c #575242",
"o  c #5A5445",
"O  c #5B5548",
"+  c #5D584A",
"@  c #675845",
"#  c #635D4C",
"$  c #685F4B",
"%  c #645E51",
"&  c #6D634F",
"*  c #776449",
"=  c #73644E",
"-  c #77694C",
";  c #666155",
":  c #6B6455",
">  c #6E6956",
",  c #6A665A",
"<  c #726653",
"1  c #796557",
"2  c #756A56",
"3  c #7D6D55",
"4  c #736B5B",
"5  c #7B6E5C",
"6  c #7E725C",
"7  c #736D61",
"8  c #7A6E60",
"9  c #777164",
"0  c #7C7363",
"q  c #7D7669",
"w  c #7F786B",
"e  c #816D5D",
"r  c #817156",
"t  c #82725B",
"y  c #857A5F",
"u  c #88795F",
"i  c #917350",
"p  c #837662",
"a  c #867963",
"s  c #8C7C63",
"d  c #857B6B",
"f  c #8B7F6D",
"g  c #927D65",
"h  c #9A7F60",
"j  c #857D70",
"k  c #887F71",
"l  c #95855D",
"z  c #9A845C",
"x  c #8B8264",
"c  c #8D816D",
"v  c #908064",
"b  c #9B8364",
"n  c #968962",
"m  c #9A8C66",
"M  c #93836D",
"N  c #9B856A",
"B  c #9C896C",
"V  c #9E906D",
"C  c #8C8374",
"Z  c #938574",
"A  c #9B8674",
"S  c #968A74",
"D  c #9B8A73",
"F  c #94897A",
"G  c #9C8D7C",
"H  c #9B917E",
"J  c #A78A64",
"K  c #A38A6C",
"L  c #A98E6C",
"P  c #AB916D",
"I  c #A28C72",
"U  c #A28E7B",
"Y  c #A49275",
"T  c #AB9373",
"R  c #A4937B",
"E  c #AB967B",
"W  c #AB9A7C",
"Q  c #B29776",
"!  c #B49C7D",
"~  c #BC9B7E",
"^  c #9B9182",
"/  c #9F978B",
"(  c #A59483",
")  c #A99682",
"_  c #A69A86",
"`  c #AC9A83",
"'  c #A4978C",
"]  c #A59A8C",
"[  c #AC9C8B",
"{  c #B39D83",
"}  c #B29E8A",
"|  c #A49C92",
" . c #AE9E91",
".. c #AEA285",
"X. c #ADA18E",
"o. c #B6A084",
"O. c #BCA385",
"+. c #B4A28C",
"@. c #BAA48B",
"#. c #B7AB8D",
"$. c #BCA88C",
"%. c #A6A096",
"&. c #ACA294",
"*. c #ADA59A",
"=. c #B4A493",
"-. c #B9A693",
";. c #B5AB93",
":. c #BBAA95",
">. c #B1A69A",
",. c #B4AB9B",
"<. c #BCAC9B",
"1. c #BEB19C",
"2. c #B5AEA3",
"3. c #BEB2A2",
"4. c #B9B2A8",
"5. c #C9A689",
"6. c #C2AD8F",
"7. c #C1AC94",
"8. c #C1AE9C",
"9. c #C2B297",
"0. c #CFB796",
"q. c #C3B29C",
"w. c #CAB59A",
"e. c #C4B89E",
"r. c #CDBB9E",
"t. c #C4B4A3",
"y. c #C9B6A3",
"u. c #C5BAA5",
"i. c #CBBAA5",
"p. c #C5B5A8",
"a. c #CBB7A8",
"s. c #C5B9AA",
"d. c #CBBCAB",
"f. c #D1BDA5",
"g. c #D1BEAD",
"h. c #CDBEB1",
"j. c #CDC1AD",
"k. c #D6C5A3",
"l. c #DECAA7",
"z. c #D3C1AD",
"x. c #D9C6AC",
"c. c #D4C9AE",
"v. c #DDC9AE",
"b. c #DED0AE",
"n. c #CDC3B3",
"m. c #CDC6BA",
"M. c #D3C4B4",
"N. c #D8C6B3",
"B. c #D7C9B4",
"V. c #DACAB6",
"C. c #D5C6B9",
"Z. c #D8C7B8",
"A. c #D6CABB",
"S. c #DBCCBC",
"D. c #DED0B5",
"F. c #DDD1BE",
"G. c #E0CDB6",
"H. c #E2CEBB",
"J. c #E1D0B7",
"K. c #E2D2BD",
"L. c #D7CCC1",
"P. c #DCCEC1",
"I. c #DED2C4",
"U. c #DED6C9",
"Y. c #DFD9CA",
"T. c #E0CFC1",
"R. c #E3D4C4",
"E. c #E6D8C6",
"W. c #E8D8C7",
"Q. c #E5D6C9",
"!. c #E4D6CA",
"~. c #E7D7CB",
"^. c #E8D7CB",
"/. c #E7D8CB",
"(. c #E5D9CC",
"). c #E7DBCF",
"_. c #EADBCB",
"`. c #E9DACD",
"'. c #EADCCF",
"]. c #E6DBD0",
"[. c #E6DCD1",
"{. c #EADED2",
"}. c #E7E2D6",
"|. c #ECE0D6",
" X c #EEE3DA",
".X c #EFE8DE",
"XX c #F1E5DC",
"oX c #F0E8DE",
"OX c #EDE6E0",
"+X c #EFE8E1",
"@X c #F1EAE2",
/* M_PIxels */
"( R.i.U R.=.S.:.t.d.K I k.w.5 M.R.w.(.M.+.5 '.R.a.Q.-.5 u S.` B M.'.{.9 (.|.{.(.R.J g (.Z.S.W S.d.j.",
"U {.y.M Z.P.z.$.J d.:.Q.l.7.5 M.I.S.P.F.S.p I.<.t. XM.M - Q.j.Q.R.].].d S.'.M.S.I.r.c R.V.S.W Q.1.t.",
"M.{.S.1 I.Z.v.K @.S.! S.w.x.< M.'.I.(.U.d.a /.C I.(.g.` * R.R E.Q.Q.{.4 K.K.<.{ S.K.5 S.Q.z.l {.t.A.",
"z.'.S.M 8.<.g.E z.O.V.+.0.q.d M.'.R.'.(.B.p Q.Z B.Z.Q.W - E.(.^.'.'.A.+ C.R.t.M.P.R.6 F./.S.x !.M.U.",
"M.P.( ( R.<.5.A R.I y.+.K.x.d I.(.R.'.S.u.F +.8 S.Q.Q.{ 6 '.{.Q.E.Q.A.. M.R.K 8.Z.K.t (.R.R.y (.:.u.",
"M.'.Z.A P.<.:.g Q.q.E.d.r.K.8 Q.'.R./.S.M.] a.=.=.E.E.@.$ Z.|.'.C.Q.<.O d.'.i.+.Q.K.s (.Q._.` U.#.m ",
"M.Q.s.'.S.R [ g R.t.p.(.K.R.q U.Q.S.I.F.!.>.U.I.z.Z.A.w.2 -.Q.Q.R.Z.S.2 y.K._ N R.K.M I.Q.A.j.'.u.n ",
"R.I.{.[.R.e R [ XXZ.G h.P.E.k C.n.S.R.R.{./ XXQ.B.S.d.q.2 -.T.Q.Q.Q.z.2 q.R.) b E K.g n.|.a.F.|.I.z ",
"P.Q.Q.S.S.=.[ <. XQ.] [ _._.5 M.4 (.3.s.{.| .XR._./.M.V.a h.{.[.^.P.z.7 M.N.` K @.K.v I.Q.>.(.{.i.z ",
"R.Q.|.Q.M.a.d.d. X<._ [ h.<.0 s.h.I.M.0 C.%.(./.(.s.(.M.d a.{.'.Q.S.z., E.S.` { S.R.G [.R.M.R.(.U.z ",
"{.Q.Q.|.Z.P.R.P. XQ.p.D =.:.j (.{.Q.'.z.{.*.L.u.{.a.Q.R.2 s.(.{.{.I.z.w '.@.b Y M.i.D |.'.C.E.E.|.Y ",
"I.Q.].{.(.p.I.A. XR.M.y.N +.0 '.C.I.I.|.I.' q.{.B.XX/.S.f M. X|.'.'.f.: '.T h Y ! L Y {.S.t.E.F.'...",
"I._.{. X].P.d.Z.U.h.P.f.R.I.F Q.C.Q.{. X(.C 1.(.{.|.R.S.5 Z.].{.'./.i., {.r.b o.! 9.M c.d.Q._.V.R.+.",
"(._.Z.].P.[ S.Z.{.8.S.+.T A.G Q.I.C.(. X(.6 /.(.d.!.E.Q.% a.Q.{.(.P.z.; M.y.b b Q F.M V.K.K._.K.B.R ",
"Q.'.i./.{.G h.d.Q.<.t.[ I I.[ S.s.A. XI.Z.f p.].{.(.E.P.: :.Q.U.I.S.q.O z.a.N ! $.E.Z K.V.9.'.r.d.Y ",
"S.E.i.XX{.G t.3.S.P.P.M.` (.F {.].{.{.:.Q.d <.Q. XR.{.{.5 y.U.j.(.S.z.> Z.V.! ! 7.R.B b.V.:.'.V.j.V ",
"[ Z.'. X].Z d.<.S.T.P.A.a.} [ /.I.!.M.'.C.Z (.M.{.Q. X(.0 a.z._ C.Q.M.4 R.V.6.! ! C.D k.R.d.(.B.#.m ",
"8.'.{.|.].U R.y.Q.R.y.d.( a.[ R.!.(.(.{.M.t |.d.|. X.XQ.d M.i.s.] P.C.q R.K.w.J ! R.B F.E.R.P.R.c.e.",
"y. X8.L.Q.h.M.M.K.d.R.@.{ ].R I.C.Q.{.M.s.p [.s.|.|. X Xd -.n.n.M.Z.S.d W.V.N.J J R.B A./.'.A.].c.R.",
"C.{.7.].XX].R.z.W.z.S.C.@..X3.n.:.Q.|.a.a.p [.{.Q.|.|.|.F Z.S B S.S.'.9 R.V.i.P O.K.E I.R.(.I.I.K.F.",
"P. X|.'. Xh.Z.Z.R.K.8.Z.g..X&.C.-.'. XM.A.G U. X{.t.{.{.d q.S.1.d.Q.{.q oX-.y.z P V.S S.S.(.Z.Q.A.F.",
"R.|.XXM.XXt.S.C._.K.R.T.S..X&.d.Z.'.I.d.A.F |.|.[.R (.R.d M.(.R.Q.{.Q.C XXV.@.! L E.S A.'.+.{.I.U.A.",
"P.'. Xt.|.C.+.M.R.f.S.H.M.@X] '.R.'.q.|.t.] |.P.{.X.{.{.0 +.M.I.M.|.z.C XX/.7.T R.'.S [.{.a.{.{.|.I.",
" . XI.M.(.{.@.d.@.H.S.B./..X,.{.R.R.M.R.<.S  X(.Q.` |.{.d t.:.I.i.S.a.d {.|.$.M.y.K.Y [.{.y./.{.|.n.",
"a.(.(.E.{.Q.7.t.{ R.~ P.7.Q.s.{.R.A.(.S.-.a ].Q.{.3.oX{.d C.d.M.S.{.R.5 C.{./.M.i.R.D (.R.8.R. X{.+.",
"a. XR.{.{.M.7.y.N R.E.R.M.M.p./.V.Z.(.S.` y .X8.|.y.{.'.0 7.M.C.Z. XM.d /. X|.R.R.z.c U.Q.a.R. X[.d.",
"+.{.|.(.@XA.w.i.I K.R.S.H.I.3.R.F.S.d.!.S f {.P.'.A./.@Xd @.a.a.Q.{.F.4 .XI.'.E.I.K.6 Q.{.Z.'.|.A.9.",
"+.{.R.{. X].I i.M.M.q.R.S.Q.n.'._.C.u.[.B 3 {.Q._.Q.I.(.C a.S.S.Z.{.z.: !.M.E._.-.'.a (.I.S.K.(.j.Y ",
"V.[.|.{.XXP.:.z.i.} -.(.t.:.m.I.I.(.I. X) r R.=.V.{.(.M.j a.:.t.M.{.t.% U.n.V.d.(..X0 (.R.(.U.(.A.;.",
"i.!.{.{.{.n.t.M.Q.M.P.'.z.g A.C.B.|.(.XX) t /.U 8 y.|.I.C Z.a.a.P.{.Q.p  XC.R.|.|.@Xa I.R.e.;.!.A.u.",
"Z {.{.V.{.>.y.M.{.'.P.R.B.7.4.Z.V.P.Q.XX) s S.a.y.-.'.C.F <.y.d.P.].S.2 (.A.XX X|.|.p R.I.6 ,.(.(.1.",
"( {.|.S.I.Q.h.h.P.Q.C.'.E.(.2.Z.E.M.S.'.R a R.d.Z M Q.R.S -.a.Z.|.Q.B.$ {.P.|.XX X.X5 R.F.,.F.Q.Q.D ",
"t.|.[.B.[.Q.s.a.I.7.C.Z.Q.{.=./.E.d.I.{._ s S.M.=.' (.Q.H t.S.S.t.R.K.0 XXn.{. X{.+X& R.F.m.R.R.R.R ",
"d.{.'.S.[.P.p.p. XM.'.Q.{.{.>.I.Z.E.Q.[.X.5 R.R.R.G (.{.( P.R.Q.-.{.Q.0 {. X|.|.{.|.6 (.S.n.(.I.[.R ",
"M.{.Q.M.Q.y.M.t. XM.'.R.].{.s.P.E.R./.Q.<.3 E.M.R.h.'.(.G A.I.S.8.Q.` 0 A.{. X|.A.(.C /.I.A.M I.|.+.",
"a./.(.S.Q.h.p.h.].I.n.M.(.R.2.S.B.S._.R.n.r '.M.'.'.{.Q.1 8.Z.P.y.XXM.5 {.[ /.(.A.P.2 {.R.I.M Q.}.;.",
"z.R.'.Q.{.M.y.t.P.C.(.R.E.h.,._.I.R._.M.A.& Q.E.R.'.Q.Z.= y.{.[.M. Xq.2 (.P.R.M.S.S.0 |.E.(.A.C.{.u.",
"-.S.R._.'.a.U h.{.M.Q.S.R.R.] _._.R./.Q.s.@ Q.R.R.R.I.:.= y.!.S.y. X7.3 Q.{.|.{.Q.n.< [.R.C.'.|.|.1.",
"T Q.Z._._.R M n.{.{.Q.R. X{.,.'.E.R._.R.M.= t.R.E.C.M.P.* :.R.I.S.|.I.< '.XX{.a.R.a.  |.M.Z.V.'.|.;.",
"O.Z._.R.'.+.) s.{.`.d.I.'.'.>._.S.'.Z.R.d.5 '._.E.R.!.Z.< +.S.P.g.C.{.# R.XXQ.:.Q.<.X R.M.S.I.I. X` ",
"S.Z.'.R.Z.( :.a.Z.R.S.S.'.'.%.E.Q.{.a.|.n.: E.R.e.E.Q.E.d } (.Q.C.Q.{.: R. X{.y.R.:.o S.P.C.B.S.{.1.",
"S.E.K.<.Q.G =.>.!.S.Z.Q.M.'.<.d.A.7.q.Q.{ = E.W.d.R.{.S.0 d.S.M.R.Q.(.; _. XI.s.t.+.X B.S.M.F./.U.,.",
"R.z.M.M Q._ +.=.'.Q.S.Q.M.{.&.E.` t.M.a.a.- E.E.K./.{.G.5 M.[.) R.C./., /.XX(.I.q.+.# F.R.i.S.R.'.X.",
"E.E.D I s.t.+.y.'.'.d.'.'.R.>.t.g Q.M.M.q.c R.S.E.P.'.v.d a.{.Q.R.C.{.% '.[. X(.q.z.# R.S.Z.Z.R./.n.",
"V.+.<.y.[ P.) q.'.'.M.(. X{.s.:.I ` A.M.R.6 E.T.P. X(.J.G Z./.D a.{.|., |.|. XQ.A.P.# I.S.A.g.R.(.n.",
"B.+.T.} ) R.-.y.^.'.'.7.{._.3.q.Y B A.I.Z. .R.E.R.q.S..XZ I.R.N -.{.{.4 {.XXXX[.P.Q.5 '.I.C.M./.Q.n.",
"M.) (.a.( Q.y.{ i.Q.'.{.'.E.2.t.<.-.u.{.t.[ E.E.R.z.(.OXd M.C.R.! S._.7 (. X X|.t. X4 Q./.M.V./.q.n.",
"-.D /.(.=.t.a.{ E._.K.{.E.E.| :.@.n.a.<.) ^ E.E.E.'.(.@Xr M.d.R.O.P._.; I.{.{.[.I. X> I.R.Z.D.U.) 3.",
"Z.` S.Z.^ =.Z.d.H.'.z.$.q.R.^ N i -.` {.Y = -._.Z.Q.Q.I.A '.8.y.Q.T.{.7 R.I.{.|.Y P.# U.R.A.R.Y.:.t.",
">.y.y.y._.C.Z.y.K.7.! _.E.E.d t.j.` I.P.` 2 '.Z.z.Q.E @.s /.} s.R.'.I., Z.{.|.(.P.f.2 Q.R.j.#.I.U.u."
};
